ffmpeg started on 2025-06-06 at 15:12:54
Report written to "D:\Convert\FFMetrics\reports\psnr_report-6.txt"
Log level: 32
Command line:
ffmpeg -hide_banner -nostdin -i "G:\\\xc0\xed\xe8\xec\xe5\\\xce\xed\xe3\xee\xe8\xed\xe3\xe8\\!_36_\xce\xf1\xe5\xed\xfc_2024\\DreamCast\\\xcd\xe8\xed\xe0 \xe2 \xea\xee\xf0\xee\xeb\xe5\xe2\xf1\xf2\xe2\xe5 \xe7\xe2\xb8\xe7\xe4\\[DC] Hoshi Furu Oukoku no Nina - 03_Telegram_HEVC.mkv" -i "G:\\\xc0\xed\xe8\xec\xe5\\\xce\xed\xe3\xee\xe8\xed\xe3\xe8\\!_36_\xce\xf1\xe5\xed\xfc_2024\\DreamCast\\\xcd\xe8\xed\xe0 \xe2 \xea\xee\xf0\xee\xeb\xe5\xe2\xf1\xf2\xe2\xe5 \xe7\xe2\xb8\xe7\xe4\\[DC] Hoshi Furu Oukoku no Nina - 03_Telegram.mp4" -lavfi "[0:v]settb=AVTB,setpts=PTS-STARTPTS,format=pix_fmts=yuv420p10,fps=24000/1001,scale=1920:1080:flags=bicubic[main];[1:v]settb=AVTB,setpts=PTS-STARTPTS,format=pix_fmts=yuv420p,fps=24000/1001,scale=1920:1080:flags=bicubic[ref];[main][ref]psnr=eof_action=endall:stats_file='D\\:/Convert/FFMetrics/logs/psnr_logfile-6.txt'" -f null -
Input #0, matroska,webm, from 'G:\Аниме\Онгоинги\!_36_Осень_2024\DreamCast\Нина в королевстве звёзд\[DC] Hoshi Furu Oukoku no Nina - 03_Telegram_HEVC.mkv':
  Metadata:
    COMPATIBLE_BRANDS: isomiso2avc1mp41
    MAJOR_BRAND     : isom
    MINOR_VERSION   : 512
    ENCODER         : Lavf61.7.100
  Duration: 00:23:46.65, start: -0.021000, bitrate: 856 kb/s
  Stream #0:0: Video: hevc (Main 10), yuv420p10le(tv, bt709, progressive), 1920x1080 [SAR 1:1 DAR 16:9], 23.98 fps, 23.98 tbr, 1k tbn (default)
      Metadata:
        HANDLER_NAME    : VideoHandler
        VENDOR_ID       : [0][0][0][0]
        ENCODER         : Lavc61.19.100 libx265
        BPS             : 658162
        DURATION        : 00:23:46.549708333
        NUMBER_OF_FRAMES: 34203
        NUMBER_OF_BYTES : 117362594
        _STATISTICS_WRITING_APP: mkvpropedit v66.0.0 ('Josie') 64-bit
        _STATISTICS_WRITING_DATE_UTC: 2025-05-31 17:18:34
        _STATISTICS_TAGS: BPS DURATION NUMBER_OF_FRAMES NUMBER_OF_BYTES
  Stream #0:1: Audio: aac (LC), 48000 Hz, stereo, fltp (default)
      Metadata:
        HANDLER_NAME    : SoundHandler
        VENDOR_ID       : [0][0][0][0]
        ENCODER         : Lavc61.19.100 aac
        BPS             : 194717
        DURATION        : 00:23:46.645000000
        NUMBER_OF_FRAMES: 66875
        NUMBER_OF_BYTES : 34724078
        _STATISTICS_WRITING_APP: mkvpropedit v66.0.0 ('Josie') 64-bit
        _STATISTICS_WRITING_DATE_UTC: 2025-05-31 17:18:34
        _STATISTICS_TAGS: BPS DURATION NUMBER_OF_FRAMES NUMBER_OF_BYTES
Input #1, mov,mp4,m4a,3gp,3g2,mj2, from 'G:\Аниме\Онгоинги\!_36_Осень_2024\DreamCast\Нина в королевстве звёзд\[DC] Hoshi Furu Oukoku no Nina - 03_Telegram.mp4':
  Metadata:
    major_brand     : isom
    minor_version   : 512
    compatible_brands: isomiso2avc1mp41
    encoder         : Lavf61.1.100
  Duration: 00:23:46.62, start: 0.000000, bitrate: 3844 kb/s
  Stream #1:0[0x1](und): Video: h264 (High) (avc1 / 0x31637661), yuv420p(tv, bt709, progressive), 1920x1080 [SAR 1:1 DAR 16:9], 3697 kb/s, 23.98 fps, 23.98 tbr, 24k tbn (default)
      Metadata:
        handler_name    : VideoHandler
        vendor_id       : [0][0][0][0]
        encoder         : Lavc61.3.100 h264_qsv
  Stream #1:1[0x2](und): Audio: aac (HE-AACv2) (mp4a / 0x6134706D), 48000 Hz, stereo, fltp, 144 kb/s (default)
      Metadata:
        handler_name    : SoundHandler
        vendor_id       : [0][0][0][0]
Stream mapping:
  Stream #0:0 (hevc) -> settb:default
  Stream #1:0 (h264) -> settb:default
  psnr:default -> Stream #0:0 (wrapped_avframe)
  Stream #0:1 -> #0:1 (aac (native) -> pcm_s16le (native))
Output #0, null, to 'pipe:':
  Metadata:
    COMPATIBLE_BRANDS: isomiso2avc1mp41
    MAJOR_BRAND     : isom
    MINOR_VERSION   : 512
    encoder         : Lavf61.7.100
  Stream #0:0: Video: wrapped_avframe, yuv420p10le(tv, bt709, progressive), 1920x1080 [SAR 1:1 DAR 16:9], q=2-31, 200 kb/s, 23.98 fps, 23.98 tbn
      Metadata:
        encoder         : Lavc61.19.100 wrapped_avframe
  Stream #0:1: Audio: pcm_s16le, 48000 Hz, stereo, s16, 1536 kb/s (default)
      Metadata:
        HANDLER_NAME    : SoundHandler
        VENDOR_ID       : [0][0][0][0]
        _STATISTICS_TAGS: BPS DURATION NUMBER_OF_FRAMES NUMBER_OF_BYTES
        BPS             : 194717
        DURATION        : 00:23:46.645000000
        NUMBER_OF_FRAMES: 66875
        NUMBER_OF_BYTES : 34724078
        _STATISTICS_WRITING_APP: mkvpropedit v66.0.0 ('Josie') 64-bit
        _STATISTICS_WRITING_DATE_UTC: 2025-05-31 17:18:34
        encoder         : Lavc61.19.100 pcm_s16le
frame=  172 fps=0.0 q=-0.0 size=N/A time=00:00:07.17 bitrate=N/A speed=13.9x    frame=  426 fps=409 q=-0.0 size=N/A time=00:00:17.76 bitrate=N/A speed=17.1x    frame=  676 fps=436 q=-0.0 size=N/A time=00:00:28.19 bitrate=N/A speed=18.2x    frame=  896 fps=435 q=-0.0 size=N/A time=00:00:37.37 bitrate=N/A speed=18.1x    frame= 1147 fps=443 q=-0.0 size=N/A time=00:00:47.83 bitrate=N/A speed=18.5x    frame= 1398 fps=451 q=-0.0 size=N/A time=00:00:58.30 bitrate=N/A speed=18.8x    frame= 1643 fps=455 q=-0.0 size=N/A time=00:01:08.52 bitrate=N/A speed=  19x    frame= 1875 fps=454 q=-0.0 size=N/A time=00:01:18.20 bitrate=N/A speed=18.9x    frame= 2119 fps=456 q=-0.0 size=N/A time=00:01:28.37 bitrate=N/A speed=  19x    frame= 2385 fps=462 q=-0.0 size=N/A time=00:01:39.47 bitrate=N/A speed=19.2x    frame= 2640 fps=465 q=-0.0 size=N/A time=00:01:50.11 bitrate=N/A speed=19.4x    frame= 2887 fps=466 q=-0.0 size=N/A time=00:02:00.41 bitrate=N/A speed=19.5x    frame= 3135 fps=467 q=-0.0 size=N/A time=00:02:10.75 bitrate=N/A speed=19.5x    frame= 3314 fps=459 q=-0.0 size=N/A time=00:02:18.22 bitrate=N/A speed=19.1x    frame= 3498 fps=452 q=-0.0 size=N/A time=00:02:25.89 bitrate=N/A speed=18.8x    frame= 3680 fps=446 q=-0.0 size=N/A time=00:02:33.48 bitrate=N/A speed=18.6x    frame= 3879 fps=442 q=-0.0 size=N/A time=00:02:41.78 bitrate=N/A speed=18.5x    frame= 4063 fps=437 q=-0.0 size=N/A time=00:02:49.46 bitrate=N/A speed=18.2x    frame= 4237 fps=432 q=-0.0 size=N/A time=00:02:56.71 bitrate=N/A speed=  18x    frame= 4410 fps=428 q=-0.0 size=N/A time=00:03:03.93 bitrate=N/A speed=17.8x    frame= 4602 fps=425 q=-0.0 size=N/A time=00:03:11.94 bitrate=N/A speed=17.7x    frame= 4825 fps=425 q=-0.0 size=N/A time=00:03:21.24 bitrate=N/A speed=17.7x    frame= 5038 fps=425 q=-0.0 size=N/A time=00:03:30.12 bitrate=N/A speed=17.7x    frame= 5289 fps=427 q=-0.0 size=N/A time=00:03:40.59 bitrate=N/A speed=17.8x    frame= 5517 fps=428 q=-0.0 size=N/A time=00:03:50.10 bitrate=N/A speed=17.8x    frame= 5769 fps=430 q=-0.0 size=N/A time=00:04:00.61 bitrate=N/A speed=17.9x    frame= 6007 fps=431 q=-0.0 size=N/A time=00:04:10.54 bitrate=N/A speed=  18x    frame= 6256 fps=433 q=-0.0 size=N/A time=00:04:20.92 bitrate=N/A speed=18.1x    frame= 6472 fps=433 q=-0.0 size=N/A time=00:04:29.97 bitrate=N/A speed=  18x    frame= 6721 fps=434 q=-0.0 size=N/A time=00:04:40.32 bitrate=N/A speed=18.1x    frame= 6961 fps=436 q=-0.0 size=N/A time=00:04:50.33 bitrate=N/A speed=18.2x    frame= 7175 fps=435 q=-0.0 size=N/A time=00:04:59.25 bitrate=N/A speed=18.1x    frame= 7372 fps=433 q=-0.0 size=N/A time=00:05:07.47 bitrate=N/A speed=18.1x    frame= 7611 fps=434 q=-0.0 size=N/A time=00:05:17.44 bitrate=N/A speed=18.1x    frame= 7849 fps=435 q=-0.0 size=N/A time=00:05:27.36 bitrate=N/A speed=18.1x    frame= 8060 fps=434 q=-0.0 size=N/A time=00:05:36.16 bitrate=N/A speed=18.1x    frame= 8294 fps=435 q=-0.0 size=N/A time=00:05:45.92 bitrate=N/A speed=18.1x    frame= 8546 fps=436 q=-0.0 size=N/A time=00:05:56.43 bitrate=N/A speed=18.2x    frame= 8796 fps=437 q=-0.0 size=N/A time=00:06:06.86 bitrate=N/A speed=18.2x    frame= 9026 fps=437 q=-0.0 size=N/A time=00:06:16.45 bitrate=N/A speed=18.2x    frame= 9252 fps=438 q=-0.0 size=N/A time=00:06:25.88 bitrate=N/A speed=18.3x    frame= 9506 fps=439 q=-0.0 size=N/A time=00:06:36.47 bitrate=N/A speed=18.3x    frame= 9747 fps=440 q=-0.0 size=N/A time=00:06:46.53 bitrate=N/A speed=18.3x    frame= 9993 fps=440 q=-0.0 size=N/A time=00:06:56.79 bitrate=N/A speed=18.4x    frame=10252 fps=442 q=-0.0 size=N/A time=00:07:07.59 bitrate=N/A speed=18.4x    frame=10492 fps=442 q=-0.0 size=N/A time=00:07:17.60 bitrate=N/A speed=18.5x    frame=10734 fps=443 q=-0.0 size=N/A time=00:07:27.69 bitrate=N/A speed=18.5x    frame=10989 fps=444 q=-0.0 size=N/A time=00:07:38.33 bitrate=N/A speed=18.5x    frame=11224 fps=444 q=-0.0 size=N/A time=00:07:48.13 bitrate=N/A speed=18.5x    frame=11466 fps=445 q=-0.0 size=N/A time=00:07:58.22 bitrate=N/A speed=18.5x    frame=11703 fps=445 q=-0.0 size=N/A time=00:08:08.11 bitrate=N/A speed=18.6x    frame=11915 fps=444 q=-0.0 size=N/A time=00:08:16.95 bitrate=N/A speed=18.5x    frame=12173 fps=445 q=-0.0 size=N/A time=00:08:27.71 bitrate=N/A speed=18.6x    frame=12412 fps=446 q=-0.0 size=N/A time=00:08:37.68 bitrate=N/A speed=18.6x    frame=12662 fps=446 q=-0.0 size=N/A time=00:08:48.11 bitrate=N/A speed=18.6x    frame=12923 fps=447 q=-0.0 size=N/A time=00:08:58.99 bitrate=N/A speed=18.7x    frame=13085 fps=445 q=-0.0 size=N/A time=00:09:05.75 bitrate=N/A speed=18.6x    frame=13279 fps=444 q=-0.0 size=N/A time=00:09:13.84 bitrate=N/A speed=18.5x    frame=13522 fps=444 q=-0.0 size=N/A time=00:09:23.98 bitrate=N/A speed=18.5x    frame=13763 fps=445 q=-0.0 size=N/A time=00:09:34.03 bitrate=N/A speed=18.6x    frame=13994 fps=445 q=-0.0 size=N/A time=00:09:43.66 bitrate=N/A speed=18.6x    frame=14208 fps=444 q=-0.0 size=N/A time=00:09:52.59 bitrate=N/A speed=18.5x    frame=14465 fps=445 q=-0.0 size=N/A time=00:10:03.31 bitrate=N/A speed=18.6x    frame=14721 fps=446 q=-0.0 size=N/A time=00:10:13.98 bitrate=N/A speed=18.6x    frame=14965 fps=446 q=-0.0 size=N/A time=00:10:24.16 bitrate=N/A speed=18.6x    frame=15215 fps=447 q=-0.0 size=N/A time=00:10:34.59 bitrate=N/A speed=18.6x    frame=15460 fps=447 q=-0.0 size=N/A time=00:10:44.81 bitrate=N/A speed=18.7x    frame=15706 fps=448 q=-0.0 size=N/A time=00:10:55.07 bitrate=N/A speed=18.7x    frame=15977 fps=449 q=-0.0 size=N/A time=00:11:06.37 bitrate=N/A speed=18.7x    frame=16241 fps=450 q=-0.0 size=N/A time=00:11:17.38 bitrate=N/A speed=18.8x    frame=16471 fps=450 q=-0.0 size=N/A time=00:11:26.97 bitrate=N/A speed=18.8x    frame=16718 fps=450 q=-0.0 size=N/A time=00:11:37.27 bitrate=N/A speed=18.8x    frame=16987 fps=451 q=-0.0 size=N/A time=00:11:48.49 bitrate=N/A speed=18.8x    frame=17241 fps=452 q=-0.0 size=N/A time=00:11:59.09 bitrate=N/A speed=18.8x    frame=17503 fps=453 q=-0.0 size=N/A time=00:12:10.02 bitrate=N/A speed=18.9x    frame=17779 fps=454 q=-0.0 size=N/A time=00:12:21.53 bitrate=N/A speed=18.9x    frame=18020 fps=454 q=-0.0 size=N/A time=00:12:31.58 bitrate=N/A speed=18.9x    frame=18262 fps=454 q=-0.0 size=N/A time=00:12:41.67 bitrate=N/A speed=18.9x    frame=18526 fps=455 q=-0.0 size=N/A time=00:12:52.68 bitrate=N/A speed=  19x    frame=18796 fps=456 q=-0.0 size=N/A time=00:13:03.94 bitrate=N/A speed=  19x    frame=19057 fps=456 q=-0.0 size=N/A time=00:13:14.83 bitrate=N/A speed=  19x    frame=19317 fps=457 q=-0.0 size=N/A time=00:13:25.67 bitrate=N/A speed=19.1x    frame=19595 fps=458 q=-0.0 size=N/A time=00:13:37.27 bitrate=N/A speed=19.1x    frame=19876 fps=459 q=-0.0 size=N/A time=00:13:48.99 bitrate=N/A speed=19.1x    frame=20152 fps=460 q=-0.0 size=N/A time=00:14:00.50 bitrate=N/A speed=19.2x    frame=20411 fps=460 q=-0.0 size=N/A time=00:14:11.30 bitrate=N/A speed=19.2x    frame=20664 fps=461 q=-0.0 size=N/A time=00:14:21.86 bitrate=N/A speed=19.2x    frame=20953 fps=462 q=-0.0 size=N/A time=00:14:33.91 bitrate=N/A speed=19.3x    frame=21216 fps=462 q=-0.0 size=N/A time=00:14:44.88 bitrate=N/A speed=19.3x    frame=21482 fps=463 q=-0.0 size=N/A time=00:14:55.97 bitrate=N/A speed=19.3x    frame=21723 fps=463 q=-0.0 size=N/A time=00:15:06.03 bitrate=N/A speed=19.3x    frame=22006 fps=464 q=-0.0 size=N/A time=00:15:17.83 bitrate=N/A speed=19.3x    frame=22276 fps=465 q=-0.0 size=N/A time=00:15:29.09 bitrate=N/A speed=19.4x    frame=22549 fps=465 q=-0.0 size=N/A time=00:15:40.48 bitrate=N/A speed=19.4x    frame=22825 fps=466 q=-0.0 size=N/A time=00:15:51.99 bitrate=N/A speed=19.4x    frame=23089 fps=466 q=-0.0 size=N/A time=00:16:03.00 bitrate=N/A speed=19.5x    frame=23338 fps=467 q=-0.0 size=N/A time=00:16:13.38 bitrate=N/A speed=19.5x    frame=23584 fps=467 q=-0.0 size=N/A time=00:16:23.64 bitrate=N/A speed=19.5x    frame=23855 fps=467 q=-0.0 size=N/A time=00:16:34.95 bitrate=N/A speed=19.5x    frame=24122 fps=468 q=-0.0 size=N/A time=00:16:46.08 bitrate=N/A speed=19.5x    frame=24383 fps=468 q=-0.0 size=N/A time=00:16:56.97 bitrate=N/A speed=19.5x    frame=24647 fps=469 q=-0.0 size=N/A time=00:17:07.98 bitrate=N/A speed=19.5x    frame=24905 fps=469 q=-0.0 size=N/A time=00:17:18.74 bitrate=N/A speed=19.6x    frame=25184 fps=470 q=-0.0 size=N/A time=00:17:30.38 bitrate=N/A speed=19.6x    frame=25448 fps=470 q=-0.0 size=N/A time=00:17:41.39 bitrate=N/A speed=19.6x    frame=25709 fps=470 q=-0.0 size=N/A time=00:17:52.27 bitrate=N/A speed=19.6x    frame=25966 fps=471 q=-0.0 size=N/A time=00:18:02.99 bitrate=N/A speed=19.6x    frame=26191 fps=470 q=-0.0 size=N/A time=00:18:12.38 bitrate=N/A speed=19.6x    frame=26480 fps=471 q=-0.0 size=N/A time=00:18:24.43 bitrate=N/A speed=19.6x    frame=26736 fps=471 q=-0.0 size=N/A time=00:18:35.11 bitrate=N/A speed=19.7x    frame=26986 fps=471 q=-0.0 size=N/A time=00:18:45.54 bitrate=N/A speed=19.7x    frame=27256 fps=472 q=-0.0 size=N/A time=00:18:56.80 bitrate=N/A speed=19.7x    frame=27513 fps=472 q=-0.0 size=N/A time=00:19:07.52 bitrate=N/A speed=19.7x    frame=27771 fps=472 q=-0.0 size=N/A time=00:19:18.28 bitrate=N/A speed=19.7x    frame=28033 fps=473 q=-0.0 size=N/A time=00:19:29.20 bitrate=N/A speed=19.7x    frame=28300 fps=473 q=-0.0 size=N/A time=00:19:40.34 bitrate=N/A speed=19.7x    frame=28576 fps=474 q=-0.0 size=N/A time=00:19:51.85 bitrate=N/A speed=19.8x    frame=28849 fps=474 q=-0.0 size=N/A time=00:20:03.24 bitrate=N/A speed=19.8x    frame=29105 fps=474 q=-0.0 size=N/A time=00:20:13.92 bitrate=N/A speed=19.8x    frame=29377 fps=475 q=-0.0 size=N/A time=00:20:25.26 bitrate=N/A speed=19.8x    frame=29651 fps=475 q=-0.0 size=N/A time=00:20:36.69 bitrate=N/A speed=19.8x    frame=29906 fps=475 q=-0.0 size=N/A time=00:20:47.32 bitrate=N/A speed=19.8x    frame=30182 fps=476 q=-0.0 size=N/A time=00:20:58.84 bitrate=N/A speed=19.8x    frame=30458 fps=476 q=-0.0 size=N/A time=00:21:10.35 bitrate=N/A speed=19.9x    frame=30714 fps=476 q=-0.0 size=N/A time=00:21:21.02 bitrate=N/A speed=19.9x    frame=30937 fps=476 q=-0.0 size=N/A time=00:21:30.33 bitrate=N/A speed=19.9x    frame=31172 fps=476 q=-0.0 size=N/A time=00:21:40.13 bitrate=N/A speed=19.9x    frame=31436 fps=476 q=-0.0 size=N/A time=00:21:51.14 bitrate=N/A speed=19.9x    frame=31690 fps=476 q=-0.0 size=N/A time=00:22:01.73 bitrate=N/A speed=19.9x    frame=31940 fps=476 q=-0.0 size=N/A time=00:22:12.16 bitrate=N/A speed=19.9x    frame=32190 fps=476 q=-0.0 size=N/A time=00:22:22.59 bitrate=N/A speed=19.9x    frame=32450 fps=477 q=-0.0 size=N/A time=00:22:33.43 bitrate=N/A speed=19.9x    frame=32702 fps=477 q=-0.0 size=N/A time=00:22:43.94 bitrate=N/A speed=19.9x    frame=32939 fps=477 q=-0.0 size=N/A time=00:22:53.83 bitrate=N/A speed=19.9x    frame=33185 fps=477 q=-0.0 size=N/A time=00:23:04.09 bitrate=N/A speed=19.9x    frame=33438 fps=477 q=-0.0 size=N/A time=00:23:14.64 bitrate=N/A speed=19.9x    frame=33690 fps=477 q=-0.0 size=N/A time=00:23:25.15 bitrate=N/A speed=19.9x    frame=33933 fps=477 q=-0.0 size=N/A time=00:23:35.28 bitrate=N/A speed=19.9x    frame=34176 fps=477 q=-0.0 size=N/A time=00:23:45.42 bitrate=N/A speed=19.9x    [Parsed_psnr_10 @ 0000020e601cc140] PSNR y:49.173966 u:50.786585 v:51.217294 average:49.700840 min:43.283549 max:inf
[out#0/null @ 0000020e5fc64680] video:14697KiB audio:267500KiB subtitle:0KiB other streams:0KiB global headers:0KiB muxing overhead: unknown
frame=34203 fps=477 q=-0.0 Lsize=N/A time=00:23:46.55 bitrate=N/A speed=19.9x    
